<?xml version="1.0" encoding="utf-8"?>
<!-- Generator: Adobe Illustrator 22.0.1, SVG Export Plug-In . SVG Version: 6.00 Build 0)  -->
<svg version="1.1" id="Layer_1" xmlns="http://www.w3.org/2000/svg" xmlns:xlink="http://www.w3.org/1999/xlink" x="0px" y="0px"
	 viewBox="0 0 512 512" style="enable-background:new 0 0 512 512;" xml:space="preserve">
<style type="text/css">
	.st0{fill:#AFAFAF;}
</style>
<path class="st0" d="M215,492c0,11-9,20-20,20h-88c-44.1,0-80-35.9-80-80V80c0-44.1,35.9-80,80-80h245.9c44.1,0,80,35.9,80,80v191
	c0,11-9,20-20,20c-11,0-20-9-20-20V80c0-22.1-17.9-40-40-40H107c-22.1,0-40,17.9-40,40v352c0,22.1,17.9,40,40,40h88
	C206,472,215,481,215,492z M332.9,120h-206c-11,0-20,9-20,20s9,20,20,20h206c11,0,20-9,20-20S343.9,120,332.9,120z M352.9,220
	c0-11-9-20-20-20h-206c-11,0-20,9-20,20s9,20,20,20h206C343.9,240,352.9,231,352.9,220z M126.9,280c-11,0-20,9-20,20s9,20,20,20H232
	c11,0,20-9,20-20s-9-20-20-20H126.9z M482.4,426.5c-0.7,1-3.1,4.4-4.6,6.3c-6.7,8.4-22.4,28.1-44.2,45.6
	c-28,22.3-56.8,33.6-85.6,33.6s-57.6-11.3-85.6-33.6c-21.8-17.4-37.5-37.1-44.2-45.6c-1.5-1.9-3.9-5.3-4.6-6.3
	c-4.8-6.9-4.8-16.1,0-23c0.7-1,3.1-4.4,4.6-6.3c6.7-8.4,22.4-28.1,44.2-45.6c28-22.3,56.8-33.6,85.6-33.6s57.6,11.3,85.6,33.6
	c21.8,17.4,37.5,37.1,44.2,45.6c1.5,1.9,3.9,5.3,4.6,6.3C487.2,410.4,487.2,419.6,482.4,426.5z M440.6,415
	c-31.8-37.8-62.9-57-92.6-57c-29.7,0-60.8,19.2-92.6,57c31.8,37.8,62.9,57,92.6,57S408.8,452.8,440.6,415z M349,377
	c-21,0-38,17-38,38s17,38,38,38s38-17,38-38S370,377,349,377z"/>
</svg>
