<?xml version="1.0" encoding="utf-8"?>
<!-- Generator: Adobe Illustrator 22.0.1, SVG Export Plug-In . SVG Version: 6.00 Build 0)  -->
<svg version="1.1" id="Capa_1" xmlns="http://www.w3.org/2000/svg" xmlns:xlink="http://www.w3.org/1999/xlink" x="0px" y="0px"
	 viewBox="0 0 512 512" style="enable-background:new 0 0 512 512;" xml:space="preserve">
<style type="text/css">
	.st0{fill:#AFAFAF;}
</style>
<circle class="st0" cx="256" cy="454.5" r="57.5"/>
<path class="st0" d="M256,397c-30,0-54.6,22.9-57.3,52.2l62.6,62.6c29.3-2.7,52.2-27.3,52.2-57.3C313.5,422.7,287.8,397,256,397z"/>
<path class="st0" d="M444.5,354.2h-377c-25.7,0-46.6,20.9-46.6,46.6s20.9,46.6,46.6,46.6h376.9c25.7,0,46.6-20.9,46.6-46.6
	C491.1,375.1,470.2,354.2,444.5,354.2z"/>
<path class="st0" d="M417.5,319v-93.4c0-75.6-51.9-139-122-156.6c4-6.8,6.3-14.7,6.3-23.2C301.8,20.5,281.3,0,256,0
	s-45.8,20.5-45.8,45.8c0,8.5,2.3,16.4,6.3,23.2c-70.1,17.6-122,81-122,156.6V319c0,20.2-16.4,36.6-36.6,36.6h396.2
	C433.9,355.7,417.5,339.3,417.5,319z M256,64.1c-10.1,0-18.3-8.2-18.3-18.3s8.2-18.3,18.3-18.3s18.3,8.2,18.3,18.3
	S266.1,64.1,256,64.1z"/>
<path class="st0" d="M21.5,410.1c3.5,22.3,22.8,39.3,46,37.2h376.9c23.2,2.1,42.5-14.9,46-37.2H21.5z"/>
</svg>
