<?xml version="1.0" encoding="utf-8"?>
<!-- Generator: Adobe Illustrator 22.0.1, SVG Export Plug-In . SVG Version: 6.00 Build 0)  -->
<svg version="1.1" id="Layer_1" xmlns="http://www.w3.org/2000/svg" xmlns:xlink="http://www.w3.org/1999/xlink" x="0px" y="0px"
	 viewBox="0 0 512 512" style="enable-background:new 0 0 512 512;" xml:space="preserve">
<style type="text/css">
	.st0{fill:#FC573B;}
</style>
<path class="st0" d="M256,0C114.9,0,0,114,0,254s114.9,254,256,254s256-114,256-254S397.1,0,256,0z M350.3,317.6
	c8.3,8.3,8.3,21.7,0,29.9c-4.2,4.1-9.6,6.2-15.1,6.2c-5.4,0-10.9-2.1-15.1-6.2L256,283.9l-64.1,63.6c-4.2,4.1-9.6,6.2-15.1,6.2
	c-5.5,0-10.9-2.1-15.1-6.2c-8.3-8.3-8.3-21.7,0-29.9l64.1-63.6l-64.1-63.6c-8.3-8.3-8.3-21.7,0-29.9s21.8-8.3,30.2,0l64.1,63.6
	l64.1-63.6c8.3-8.3,21.8-8.3,30.2,0s8.3,21.7,0,29.9L286.2,254L350.3,317.6z"/>
</svg>
