<?xml version="1.0" encoding="utf-8"?>
<!-- Generator: Adobe Illustrator 22.0.1, SVG Export Plug-In . SVG Version: 6.00 Build 0)  -->
<svg version="1.1" id="Layer_1" xmlns="http://www.w3.org/2000/svg" xmlns:xlink="http://www.w3.org/1999/xlink" x="0px" y="0px"
	 viewBox="0 0 512 512" style="enable-background:new 0 0 512 512;" xml:space="preserve">
<style type="text/css">
	.st0{fill:#AFAFAF;}
</style>
<g>
	<g>
		<g>
			<path class="st0" d="M187.7,315.7c0,4.7,3.8,8.5,8.5,8.5h34.1c4.7,0,8.5-3.8,8.5-8.5v-51.2c0-4.7-3.8-8.5-8.5-8.5h-34.1
				c-4.7,0-8.5,3.8-8.5,8.5L187.7,315.7L187.7,315.7z M204.8,273.1h17.1v34.1h-17.1V273.1z"/>
			<path class="st0" d="M196.3,221.9h34.1c4.7,0,8.5-3.8,8.5-8.5v-51.2c0-4.7-3.8-8.5-8.5-8.5h-34.1c-4.7,0-8.5,3.8-8.5,8.5v51.2
				C187.7,218,191.6,221.9,196.3,221.9z M204.8,170.7h17.1v34.1h-17.1V170.7z"/>
			<path class="st0" d="M132.4,160.9L256,86.8l123.6,74.2c1.4,0.8,2.9,1.2,4.4,1.2c2.9,0,5.7-1.5,7.3-4.1c2.4-4,1.1-9.3-2.9-11.7
				L264.5,72V17.1h42.7v17.1h-25.6c-4.7,0-8.5,3.8-8.5,8.5s3.8,8.5,8.5,8.5h34.1c4.7,0,8.5-3.8,8.5-8.5V8.5c0-4.7-3.8-8.5-8.5-8.5
				H256c-4.7,0-8.5,3.8-8.5,8.5V72l-123.9,74.3c-4,2.4-5.3,7.7-2.9,11.7C123.1,162,128.4,163.3,132.4,160.9z"/>
			<path class="st0" d="M93.9,324.3c4.7,0,8.5-3.8,8.5-8.5v-51.2c0-4.7-3.8-8.5-8.5-8.5H59.7c-4.7,0-8.5,3.8-8.5,8.5v17.1
				c0,4.7,3.8,8.5,8.5,8.5s8.5-3.8,8.5-8.5v-8.5h17.1v42.7C85.3,320.4,89.2,324.3,93.9,324.3z"/>
			<path class="st0" d="M153.6,435.2V187.7c0-4.7-3.8-8.5-8.5-8.5s-8.5,3.8-8.5,8.5v247.5c0,4.7,3.8,8.5,8.5,8.5
				C149.8,443.7,153.6,439.9,153.6,435.2z"/>
			<path class="st0" d="M110.9,477.9h290.1c4.7,0,8.5-3.8,8.5-8.5s-3.8-8.5-8.5-8.5h-76.8v-85.3h8.5c4.7,0,8.5-3.8,8.5-8.5
				s-3.8-8.5-8.5-8.5H179.2c-4.7,0-8.5,3.8-8.5,8.5s3.8,8.5,8.5,8.5h8.5v85.3h-76.8c-4.7,0-8.5,3.8-8.5,8.5S106.2,477.9,110.9,477.9
				z M264.5,426.7c4.7,0,8.5-3.8,8.5-8.5s-3.8-8.5-8.5-8.5v-34.1h42.7v85.3h-42.7L264.5,426.7L264.5,426.7z M204.8,375.5h42.7v34.1
				c-4.7,0-8.5,3.8-8.5,8.5s3.8,8.5,8.5,8.5v34.1h-42.7V375.5z"/>
			<path class="st0" d="M452.3,366.9h-34.1c-4.7,0-8.5,3.8-8.5,8.5v51.2c0,4.7,3.8,8.5,8.5,8.5h34.1c4.7,0,8.5-3.8,8.5-8.5v-51.2
				C460.8,370.8,457,366.9,452.3,366.9z M443.7,418.1h-17.1V384h17.1V418.1z"/>
			<path class="st0" d="M452.3,264.5h-34.1c-4.7,0-8.5,3.8-8.5,8.5v51.2c0,4.7,3.8,8.5,8.5,8.5h34.1c4.7,0,8.5-3.8,8.5-8.5v-51.2
				C460.8,268.4,457,264.5,452.3,264.5z M443.7,315.7h-17.1v-34.1h17.1V315.7z"/>
			<path class="st0" d="M435.2,494.9H76.8c-4.7,0-8.5,3.8-8.5,8.5s3.8,8.5,8.5,8.5h358.4c4.7,0,8.5-3.8,8.5-8.5
				S439.9,494.9,435.2,494.9z"/>
			<path class="st0" d="M503.5,187.7c-4.7,0-8.5,3.8-8.5,8.5v8.5h-93.9c-4.7,0-8.5,3.8-8.5,8.5s3.8,8.5,8.5,8.5h93.9v281.6
				c0,4.7,3.8,8.5,8.5,8.5s8.5-3.8,8.5-8.5V196.3C512,191.6,508.2,187.7,503.5,187.7z"/>
			<path class="st0" d="M273.1,315.7c0,4.7,3.8,8.5,8.5,8.5h34.1c4.7,0,8.5-3.8,8.5-8.5v-51.2c0-4.7-3.8-8.5-8.5-8.5h-34.1
				c-4.7,0-8.5,3.8-8.5,8.5L273.1,315.7L273.1,315.7z M290.1,273.1h17.1v34.1h-17.1L290.1,273.1L290.1,273.1z"/>
			<path class="st0" d="M85.3,418.1c0-1.1-0.5-110.9-42.7-110.9C0.5,307.2,0,417,0,418.1c0,20.6,14.7,37.8,34.1,41.8v43.5
				c0,4.7,3.8,8.5,8.5,8.5s8.5-3.8,8.5-8.5v-43.5C70.6,456,85.3,438.7,85.3,418.1z M42.7,443.7c-14.1,0-25.6-11.5-25.6-25.6
				c0-42.5,11.4-93.9,25.6-93.9s25.6,51.4,25.6,93.9C68.3,432.2,56.8,443.7,42.7,443.7z"/>
			<path class="st0" d="M375.5,435.2v-256c0-4.7-3.8-8.5-8.5-8.5s-8.5,3.8-8.5,8.5v256c0,4.7,3.8,8.5,8.5,8.5
				S375.5,439.9,375.5,435.2z"/>
			<path class="st0" d="M281.6,221.9h34.1c4.7,0,8.5-3.8,8.5-8.5v-51.2c0-4.7-3.8-8.5-8.5-8.5h-34.1c-4.7,0-8.5,3.8-8.5,8.5v51.2
				C273.1,218,276.9,221.9,281.6,221.9z M290.1,170.7h17.1v34.1h-17.1L290.1,170.7L290.1,170.7z"/>
			<path class="st0" d="M8.5,298.7c4.7,0,8.5-3.8,8.5-8.5v-68.3h93.9c4.7,0,8.5-3.8,8.5-8.5s-3.8-8.5-8.5-8.5H17.1v-8.5
				c0-4.7-3.8-8.5-8.5-8.5S0,191.6,0,196.3v93.9C0,294.8,3.8,298.7,8.5,298.7z"/>
		</g>
	</g>
</g>
</svg>
